PathFileType	3	(X/Y/Z)	C:\Users\koon_\Desktop\
DataRate	CameraRate	NumFrames	NumMarkers	Units	OrigDataRate	OrigDataStartFrame	OrigNumFrames
100.0	100.0	7	27	mm	100.0	752	3007	
Frame#	Time	get:LFHD			get:RFHD			get:LBHD			get:RBHD			get:C7			get:T10			get:CLAV			get:STRN			get:RBAK			get:LSHO			get:LUPA			get:LELB			get:LFRA			get:LWRA			get:LWRB			get:LFIN			get:RSHO			get:RUPA			get:RELB			get:RFRA			get:RWRA			get:RWRB			get:RFIN			get:LASI			get:RASI			get:LPSI			get:RPSI			
		X1	Y1	Z1	X2	Y2	Z2	X3	Y3	Z3	X4	Y4	Z4	X5	Y5	Z5	X6	Y6	Z6	X7	Y7	Z7	X8	Y8	Z8	X9	Y9	Z9	X10	Y10	Z10	X11	Y11	Z11	X12	Y12	Z12	X13	Y13	Z13	X14	Y14	Z14	X15	Y15	Z15	X16	Y16	Z16	X17	Y17	Z17	X18	Y18	Z18	X19	Y19	Z19	X20	Y20	Z20	X21	Y21	Z21	X22	Y22	Z22	X23	Y23	Z23	X24	Y24	Z24	X25	Y25	Z25	X26	Y26	Z26	X27	Y27	Z27	
752	7.51	-428.48203	1295.7026	32.915627	-430.82907	1149.8103	-27.487398	-424.10632	1337.4008	-86.235634	-436.41751	1227.2109	-150.32497	-230.85696	1284.9509	-139.96027	-30.361532	1155.0895	-252.28003	-202.98399	1131.5878	-10.793343	-65.780533	1007.9464	-34.813007	-229.48666	1209.1951	-227.56583	-143.45557	1314.6794	20.087257	-11.378162	1234.0957	37.404354	125.48763	1114.6184	-3.9161077	112.17571	988.89362	-12.159537	134.34029	900.90289	-38.839252	197.48459	918.05957	-19.341829	193.3941	830.30341	-9.3246794	-330.01343	1141.9574	-153.91251	-284.49539	927.67267	-215.69341	-233.52155	852.80597	-288.52338	-238.76888	769.94934	-223.11671	-195.01836	624.27594	-212.46841	-194.45743	632.30444	-287.86444	-218.69843	556.85889	-249.40331	130.20717	939.9325	-96.24852	-132.84676	902.32532	-173.47865	94.921471	996.9342	-300.46024	-1.8674771	973.50055	-335.95432
753	7.52	-428.05347	1295.6946	33.33894	-430.68124	1149.9163	-27.30044	-423.92358	1337.6462	-85.824501	-436.44144	1227.5874	-150.07193	-230.70761	1285.0667	-139.9514	-30.27722	1155.1683	-252.48674	-202.91711	1131.5433	-10.975747	-65.778656	1007.8225	-35.029518	-229.40378	1209.3376	-227.57079	-143.28166	1314.5608	20.085056	-11.302469	1233.7874	37.356945	125.40384	1114.1693	-3.9912295	112.14772	988.50604	-12.237896	134.2603	900.49359	-38.830585	197.44972	917.66217	-19.403849	193.42247	830.02393	-9.1047859	-329.95557	1142.1141	-153.98457	-284.6731	927.86133	-216.00519	-233.83566	852.98035	-288.83978	-239.09424	770.07281	-223.55731	-195.34998	624.3999	-212.97951	-194.88663	632.48169	-288.27148	-219.07799	557.01587	-249.93344	130.24521	939.88202	-96.346321	-132.85648	902.29034	-173.60587	94.969002	996.88135	-300.56793	-1.7331686	973.48492	-336.11691
754	7.53	-427.57321	1295.8859	33.720444	-430.53232	1150.1632	-27.095278	-423.56027	1337.9628	-85.269119	-436.40948	1227.9756	-149.6364	-230.51157	1285.217	-139.95406	-30.132586	1155.2787	-252.70274	-202.83221	1131.5386	-11.159275	-65.784271	1007.7971	-35.207027	-229.28838	1209.6176	-227.70085	-143.00281	1314.5006	20.029991	-11.138069	1233.5588	37.320862	125.34934	1113.8147	-4.1268601	112.10059	988.17395	-12.379864	133.55556	901.05695	-37.065636	197.36786	917.3006	-19.462204	193.22826	829.75153	-8.9003124	-329.85031	1142.4132	-154.08937	-284.83044	928.13269	-216.21841	-234.13698	853.2204	-289.13513	-239.38828	770.27289	-223.77618	-195.72581	624.54956	-213.38483	-195.33942	632.70313	-288.71814	-219.39207	557.16345	-250.18805	130.2287	939.90961	-96.408852	-132.81146	902.2804	-173.84421	95.064224	996.87781	-300.70016	-1.6677378	973.45984	-336.26932
755	7.54	-426.91608	1296.2863	34.057686	-430.3042	1150.4496	-26.398975	-423.16559	1338.4281	-84.822807	-436.41589	1228.5518	-149.27278	-230.25362	1285.4398	-140.02216	-30.197275	1155.0988	-252.53827	-202.68523	1131.6389	-11.332314	-65.817467	1007.8095	-35.405952	-229.04459	1209.9489	-227.90187	-142.6707	1314.5367	19.938906	-10.933323	1233.4398	37.212292	125.39931	1113.5803	-4.2798915	112.06544	987.90704	-12.496745	134.09761	899.84003	-38.858971	197.29327	917.00641	-19.467272	193.10173	829.49957	-8.6532974	-329.70731	1142.7667	-154.23112	-285.05029	928.46002	-216.2879	-234.49965	853.43921	-289.26947	-239.74408	770.50195	-223.93428	-196.12042	624.73413	-213.67726	-195.83733	632.89777	-289.04623	-219.93965	557.4201	-250.58749	130.18286	939.87146	-96.42662	-132.76669	902.27026	-174.08247	95.129227	996.83264	-300.78494	-1.6016736	973.45996	-336.41394
756	7.55	-426.15695	1296.9237	34.510292	-430.1138	1151.1498	-26.065924	-422.63416	1339.1047	-84.391281	-436.31317	1229.2655	-148.86119	-229.88544	1285.769	-140.11153	-29.935966	1155.2053	-252.81155	-202.54042	1131.8224	-11.488653	-65.768005	1007.8983	-35.565361	-228.80629	1210.2671	-227.99512	-142.20071	1314.6594	19.765951	-10.626731	1233.3748	37.036148	125.49638	1113.3451	-4.4347472	112.0022	987.70532	-12.551094	134.02406	899.63538	-38.839611	197.24258	916.74664	-19.474133	192.96106	829.2619	-8.5306187	-329.50397	1143.202	-154.2933	-285.33572	928.87244	-216.42897	-234.89603	853.71411	-289.36826	-240.18423	770.71552	-224.16432	-196.57474	624.91327	-213.91362	-196.40945	633.07361	-289.2319	-220.35274	557.58759	-250.67297	130.11009	939.86768	-96.436607	-132.77419	902.29926	-174.20358	95.14196	996.78625	-300.86545	-1.4969069	973.4588	-336.55093
757	7.56	-425.26233	1297.7012	34.936546	-429.81354	1151.9078	-25.798744	-421.95645	1339.9552	-83.962914	-436.11182	1230.2034	-148.54144	-229.45215	1286.1936	-140.23521	-29.643744	1155.3257	-253.06549	-202.27457	1132.1899	-11.549141	-65.720474	1008.028	-35.715443	-228.44966	1210.7471	-228.26106	-141.63757	1314.8822	19.594984	-10.238086	1233.3928	36.939701	125.72536	1113.2148	-4.5934944	112.08972	987.54694	-12.633811	134.00221	898.91504	-40.159626	197.22716	916.45349	-19.479439	192.7677	829.02203	-8.3573065	-329.21802	1143.7129	-154.43437	-285.52292	929.35266	-216.35759	-235.36671	854.03064	-289.36465	-240.48779	771.03528	-224.11522	-197.05554	625.16083	-214.01575	-197.13245	633.37225	-289.39285	-220.89688	557.71875	-250.599	130.007	939.86285	-96.420563	-132.78282	902.35657	-174.32738	95.150421	996.66455	-300.87549	-1.4946373	973.43518	-336.73392
758	7.57	-424.3215	1298.7048	35.364964	-429.52975	1153.1742	-25.752472	-421.18164	1341.004	-83.673401	-435.90878	1231.3203	-148.11549	-228.84132	1286.6803	-140.39464	-29.279943	1155.4595	-253.35744	-202.0005	1132.6616	-11.700071	-65.647667	1008.2457	-35.846615	-228.02483	1211.1793	-228.36601	-140.89537	1315.2587	19.391075	-9.6766634	1233.4926	36.724823	126.00025	1113.0435	-4.802608	112.18108	987.40729	-12.740563	133.37407	900.15643	-36.941895	197.23872	916.2157	-19.473286	192.71515	828.80334	-8.1341457	-328.92282	1144.3671	-154.56721	-285.73904	929.88062	-216.36958	-235.81961	854.40515	-289.33182	-240.9229	771.46857	-224.01643	-197.69955	625.47729	-214.02086	-197.92616	633.64905	-289.42471	-221.53058	558.00031	-250.61679	129.88484	939.82568	-96.342224	-132.84995	902.45648	-174.45427	95.193001	996.5495	-300.90549	-1.4142036	973.35315	-336.82495
